<svg xmlns="http://www.w3.org/2000/svg" viewBox="0 0 512 512" fill="none">
  <rect width="512" height="512" rx="128" fill="#1e3a8a"/>
  <rect x="40" y="40" width="432" height="432" rx="96" fill="#1e40af" stroke="#3b82f6" stroke-width="8" stroke-dasharray="0"/>
  <!-- Clipboard / building badge -->
  <rect x="120" y="110" width="272" height="320" rx="36" fill="#ffffff" filter="drop-shadow(0 12px 24px rgba(0,0,0,0.25))"/>
  <rect x="180" y="76" width="152" height="60" rx="20" fill="#2563eb"/>
  <circle cx="256" cy="106" r="14" fill="#ffffff"/>
  <!-- Lines and checkboxes -->
  <rect x="160" y="170" width="40" height="40" rx="10" fill="#10b981"/>
  <path d="M170 190 L178 198 L192 182" stroke="#ffffff" stroke-width="5" stroke-linecap="round" stroke-linejoin="round"/>
  <rect x="220" y="180" width="130" height="18" rx="9" fill="#94a3b8"/>

  <rect x="160" y="234" width="40" height="40" rx="10" fill="#f59e0b"/>
  <circle cx="180" cy="254" r="7" fill="#ffffff"/>
  <rect x="220" y="244" width="145" height="18" rx="9" fill="#94a3b8"/>

  <rect x="160" y="298" width="40" height="40" rx="10" fill="#3b82f6"/>
  <rect x="172" y="310" width="16" height="16" rx="4" fill="#ffffff"/>
  <rect x="220" y="308" width="115" height="18" rx="9" fill="#94a3b8"/>

  <!-- Badge for demand count/tools -->
  <circle cx="370" cy="380" r="56" fill="#0284c7" stroke="#ffffff" stroke-width="6"/>
  <path d="M350 380 L390 380 M370 360 L370 400" stroke="#ffffff" stroke-width="6" stroke-linecap="round"/>
</svg>
